PathFileType	4	(X/Y/Z)	pose_F01_0-96.trc
DataRate	CameraRate	NumFrames	NumMarkers	Units	OrigDataRate	OrigDataStartFrame	OrigNumFrames
30	30	7	21	m	30	84	96
Frame#	Time	CHip			RHip			RKnee			RAnkle			RBigToe			RSmallToe			RHeel			LHip			LKnee			LAnkle			LBigToe			LSmallToe			LHeel			Neck			Nose			RShoulder			RElbow			RWrist			LShoulder			LElbow			LWrist			
		X1	Y1	Z1	X2	Y2	Z2	X3	Y3	Z3	X4	Y4	Z4	X5	Y5	Z5	X6	Y6	Z6	X7	Y7	Z7	X8	Y8	Z8	X9	Y9	Z9	X10	Y10	Z10	X11	Y11	Z11	X12	Y12	Z12	X13	Y13	Z13	X14	Y14	Z14	X15	Y15	Z15	X16	Y16	Z16	X17	Y17	Z17	X18	Y18	Z18	X19	Y19	Z19	X20	Y20	Z20	X21	Y21	Z21	
84	2.8	-0.19895328825871955	1.8845747193825693	-0.5846500213441634	-0.21160007631965597	1.8828617688426563	-0.5147764266881324	-0.21349527454255457	1.741353887927331	-0.44469726277415206	-0.20191094469691725	1.6083580373027506	-0.35785688695584705	-0.21953622553293842	1.5771022682785754	-0.3292106589540861	-0.21657319637482492	1.577345612768402	-0.3615376279840167	-0.19865011821144635	1.6011005758001344	-0.36114034395383704	-0.18365341540776106	1.8870992369373512	-0.6594554453803957	-0.17481467449847835	1.734394119886118	-0.6811661028757084	-0.15090664214199986	1.5875733492002038	-0.7175670265701546	-0.29479923231246613	1.4818435350912287	-1.2081286525897637	-0.27513885497191026	1.4829563351367039	-1.2376326207066362	-0.1422218912342452	1.57811350688995	-0.7131023641563824	-0.19350114747961722	2.050008008581943	-0.606576483140772	-0.20856377530310904	2.124210639326336	-0.6202397740186468	-0.21088267547321207	2.046108130979154	-0.5094507118223749	-0.20957590006844978	1.962431255716034	-0.4473570424105364	-0.21394812480139305	1.8882391978846313	-0.36638403572817263	-0.17121671901488053	2.0544564817515885	-0.7058860693726983	-0.1637950874865498	1.9689145178186833	-0.753383278700243	-0.16038203458261738	1.8898628328622034	-0.7969184056619361
85	2.8333333333333335	-0.2011022552745284	1.8860391586070486	-0.5824830234120754	-0.2108355789616757	1.8841437974921516	-0.5117064257807022	-0.21086228028321427	1.7443223190985482	-0.4438267996437475	-0.20186644214642632	1.607621756831718	-0.358145121926834	-0.21953622553293842	1.5771022682785754	-0.3292106589540861	-0.21657319637482492	1.577345612768402	-0.3615376279840167	-0.19950637496421725	1.5995087413988192	-0.3647056857368922	-0.18500019479778418	1.888387986415093	-0.6542830408129837	-0.17387457522900585	1.7370263995700763	-0.6782307791801051	-0.15118590448063493	1.586124118923453	-0.7171289228212601	-0.2962314713201013	1.4827704794299201	-1.2012186115795538	-0.27742592182107007	1.4836730656479604	-1.2338104898981905	-0.14313140417833245	1.5755816261136655	-0.7159575982610616	-0.19298755155243505	2.048483466761672	-0.5950205996175738	-0.20805044908979636	2.121334086061861	-0.6085519556801213	-0.21006658161754263	2.044476252479466	-0.49765315213474615	-0.208554017119114	1.9598996072121642	-0.4435553592907414	-0.21037232559070318	1.8847714385633836	-0.37012009608841	-0.17175590555960787	2.0539806045992512	-0.6975313128338182	-0.16378931871496633	1.9661195803886555	-0.7413079168540457	-0.16650943629873513	1.8865598959929701	-0.7747508510283345
86	2.8666666666666667	-0.19864317018730707	1.8821004741748135	-0.5721230774939865	-0.21113708528241565	1.8815411696540718	-0.5026036618935993	-0.2095397813454013	1.7415770904385441	-0.4403248787711476	-0.20171928941605882	1.604269934035159	-0.35774594869561105	-0.21953622553293842	1.5771022682785754	-0.3292106589540861	-0.21657319637482492	1.577345612768402	-0.3615376279840167	-0.1984555464116445	1.5969061416611374	-0.3611052563887915	-0.18265273181125408	1.8841604105423935	-0.6439662890956159	-0.17002191104612674	1.7345063094299964	-0.6737953251940326	-0.14934161713778865	1.585200713712518	-0.7186716866616821	-0.29708715716713296	1.4825309805340023	-1.2043454831237264	-0.2774020294012475	1.4823847191163584	-1.2340878913966982	-0.14369233113911067	1.5760855477581026	-0.7151785130421362	-0.1912672507348463	2.047203241368153	-0.5886657282162722	-0.208243126993205	2.1209969570636416	-0.6002878545439158	-0.20811983669676878	2.0442205964355202	-0.49127016201238216	-0.2056429410986256	1.9559313778171084	-0.4414786422228964	-0.2098371696571135	1.877698151596816	-0.374303326059109	-0.17224457487559042	2.0538027908350087	-0.6890282229113424	-0.16567221180309902	1.966579849202033	-0.7274263821929541	-0.16780104278903843	1.8861986474220993	-0.7575312615768311
87	2.9	-0.19654926622753896	1.8817164152432067	-0.5655979270336144	-0.20978158656566293	1.879753438299537	-0.49890696196430995	-0.2096253449893239	1.7429583573199552	-0.44031680696493264	-0.2021204584767551	1.606757148220834	-0.3574708016615712	-0.21953622553293842	1.5771022682785754	-0.3292106589540861	-0.21657319637482492	1.577345612768402	-0.3615376279840167	-0.19915513324933137	1.5988026308985137	-0.3601268168257486	-0.18152946206023082	1.8838625933915176	-0.6406935860612109	-0.16730338140146173	1.7328930574128742	-0.6764528624837406	-0.1487742259887312	1.5877322045003812	-0.7198412284825892	-0.2948671742643967	1.4842424952775743	-1.20883243430145	-0.27501449151897217	1.485223603467307	-1.2374518045611906	-0.14289190496738857	1.5767524854495143	-0.7164945253145624	-0.19040268134111796	2.048430877321504	-0.5860367480762206	-0.20859537301372258	2.1195140063539992	-0.5922686473736635	-0.20718762414566122	2.0439493746208672	-0.4880625204608184	-0.20352679710446456	1.9573482047406114	-0.44391248357579394	-0.20766410777564312	1.8789722031238882	-0.38560263671896844	-0.17067812515795863	2.0537777453422073	-0.6834920499290187	-0.16745044511559146	1.9665548265632051	-0.713133118734719	-0.1672770410755225	1.8846142080726462	-0.745368277932589
88	2.933333333333333	-0.19858920006660458	1.8789718330036975	-0.5628451015557392	-0.20895543538885797	1.8769840153739523	-0.49514382715513283	-0.2081930041903414	1.7420054395909672	-0.4418415662671834	-0.20195538211552633	1.605870302042787	-0.357645325040104	-0.21953622553293842	1.5771022682785754	-0.3292106589540861	-0.21657319637482492	1.577345612768402	-0.3615376279840167	-0.19795323277366667	1.5968501201955823	-0.3656302151563984	-0.18283719417101418	1.881023099992113	-0.6350172420069639	-0.16321360566842588	1.7334260986438612	-0.6806971220420949	-0.1489001058633094	1.5860565589760827	-0.7194547280790274	-0.293790517785948	1.4829228374466616	-1.204968124976519	-0.2740426177842571	1.4847655618582256	-1.2343878811241333	-0.14296389452480704	1.574925441415175	-0.716075852084501	-0.18947047843947212	2.046959626436066	-0.5823954257809815	-0.20873693831990678	2.1190946912217794	-0.5840468790339012	-0.20624209923565343	2.041325852847426	-0.48441670460568137	-0.20415067108193677	1.9574957156887898	-0.4463034348117297	-0.20348090781269226	1.8826214075537178	-0.39969334186983047	-0.1689925708207992	2.052159400677653	-0.6769185762532783	-0.16499434902683477	1.9631802797550875	-0.7034537339946761	-0.17119944010070315	1.880358350465171	-0.7255151335435824
89	2.966666666666667	-0.19780105148598853	1.8803797947273602	-0.5599691384272428	-0.2090102459882065	1.8784798019498143	-0.49539513737055724	-0.20539841209771428	1.740897506725937	-0.44050295042430376	-0.20183142020272302	1.6029690133408254	-0.35726822433220623	-0.21953622553293842	1.5771022682785754	-0.3292106589540861	-0.21657319637482492	1.577345612768402	-0.3615376279840167	-0.19734734714175445	1.5933743739600077	-0.366039565744837	-0.18304187711346132	1.883893495270294	-0.6353325781564435	-0.16032812531923632	1.7350861120307215	-0.6798313492071313	-0.14860454702688275	1.5875011482270258	-0.7199106209754904	-0.2947998159563984	1.4845229622847682	-1.208979208965795	-0.2749115791640299	1.4856832891894596	-1.2375851376513307	-0.14270018019529082	1.5761797130685207	-0.7164985748246635	-0.18848428634530806	2.046784152352867	-0.5794122782275195	-0.2069710189651991	2.118813502898883	-0.5778957461294246	-0.20321043394354724	2.041570137360996	-0.48342662778150264	-0.20129119791857036	1.9583347497942785	-0.45399404531676696	-0.2058019852258531	1.8783008482043198	-0.4074948791446064	-0.16813440203933722	2.0519940954508793	-0.6739267054324186	-0.16405501316115942	1.965688313224927	-0.7007325945172626	-0.1667988663382223	1.8839176585153468	-0.7218571406447516
90	3.0	-0.19673914267128434	1.8819150194238643	-0.5655426542778417	-0.20997143457556042	1.879976835421269	-0.49888199420551993	-0.20415605484556715	1.7448465589638105	-0.44682008458753597	-0.20189891679132305	1.6030595657555355	-0.3573734559239078	-0.21953622553293842	1.5771022682785754	-0.3292106589540861	-0.21657319637482492	1.577345612768402	-0.3615376279840167	-0.19754019628699962	1.594205746768082	-0.3660915897549128	-0.18295808414455852	1.883906770889185	-0.6353863928729817	-0.1598444487240846	1.7374512467318466	-0.6804997557977213	-0.14615398358161746	1.588978629449661	-0.7228127836877494	-0.2937698169189403	1.48311668132671	-1.205115986260275	-0.27489200602695857	1.4845466968628522	-1.2376518431382506	-0.14054702302321717	1.576702069398162	-0.7188582793263936	-0.18853246813601643	2.0443548246766663	-0.5789242426670299	-0.20702057163829135	2.1164276817901344	-0.5773828002395397	-0.20230051647790806	2.0398421112156275	-0.47977042898525624	-0.20411695179273795	1.9534890812577737	-0.4541957839028324	-0.20812306263901395	1.8739802888549217	-0.41529641641938236	-0.16604079783856093	2.051965838030645	-0.6761486686582407	-0.16339484399726673	1.9629068786053425	-0.6971550944265251	-0.1613988461346119	1.878435963729365	-0.7107610495493529
